<svg width="87" height="100" viewBox="0 0 87 100" fill="none" xmlns="http://www.w3.org/2000/svg">
<g filter="url(#filter0_d_36_20)">
<path d="M82.3677 63.5304C82.3677 55.3656 76.3028 48.5937 68.4425 47.475V40.9977C68.4425 37.8622 65.8915 35.3108 62.7556 35.3108H9.86008C6.72453 35.3108 4.17316 37.8618 4.17316 40.9977V79.3337C4.17316 91.0369 13.6946 100.558 25.3978 100.558H47.217C58.8354 100.558 68.2987 91.1735 68.4356 79.587C76.2998 78.4706 82.3677 71.6976 82.3677 63.5304ZM47.2174 95.9675H25.3982C16.2261 95.9675 8.7644 88.5055 8.7644 79.3337V40.9977C8.7644 40.3933 9.256 39.9016 9.86047 39.9016H62.756C63.3604 39.9016 63.852 40.3933 63.852 40.9977V79.3337C63.8516 88.5055 56.3896 95.9675 47.2174 95.9675ZM68.4425 74.9318V52.129C73.7595 53.1979 77.7769 57.9036 77.7769 63.5304C77.7769 69.1573 73.7595 73.8633 68.4425 74.9318Z" fill="white"/>
<path d="M28.6432 16.854C30.5568 20.0248 29.7136 23.0153 28.6432 24.9882C27.9695 26.2301 27.2078 27.069 26.9924 27.2948C26.1144 28.2038 26.1358 29.6526 27.0421 30.5348C27.4886 30.969 28.0659 31.1851 28.6432 31.1851C29.2412 31.1851 29.8383 30.9529 30.2883 30.4908C33.5141 27.1765 37.6608 18.9547 30.2664 11.5604C29.0958 10.3897 28.5705 9.09239 28.7048 7.70481C28.8169 6.54944 29.4007 5.34281 30.2664 4.47705C31.1628 3.58068 31.1628 2.12729 30.2664 1.23093C29.3701 0.334563 27.9163 0.334563 27.0203 1.23093C25.402 2.84959 24.3504 5.04746 24.1357 7.26179C23.9479 9.19989 24.2957 12.0822 27.0203 14.8069C27.7055 15.4917 28.2342 16.1769 28.6432 16.854Z" fill="white"/>
<path d="M42.7842 16.854C44.6978 20.0248 43.8546 23.0157 42.7842 24.9882C42.1105 26.2301 41.3488 27.069 41.1334 27.2948C40.2554 28.2038 40.2768 29.6526 41.1831 30.5348C41.6296 30.969 42.2069 31.1851 42.7842 31.1851C43.3821 31.1851 43.9793 30.9529 44.4292 30.4908C47.6551 27.1765 51.8018 18.9547 44.4074 11.5604C43.2368 10.3897 42.7115 9.09239 42.8458 7.70481C42.9579 6.54944 43.5417 5.34281 44.4074 4.47705C45.3038 3.58068 45.3038 2.12729 44.4074 1.23093C43.5111 0.334563 42.0573 0.334563 41.1613 1.23093C39.543 2.84959 38.4913 5.04746 38.2767 7.26179C38.0889 9.19989 38.4366 12.0822 41.1613 14.8069C41.8465 15.4917 42.3756 16.1769 42.7842 16.854Z" fill="white"/>
<path d="M16.0554 43.3387C14.788 43.3387 13.76 44.3667 13.76 45.6341V77.8386C13.76 79.1061 14.788 80.134 16.0554 80.134C17.3229 80.134 18.3509 79.1061 18.3509 77.8386V45.6341C18.3509 44.3667 17.3229 43.3387 16.0554 43.3387Z" fill="white"/>
</g>
<defs>
<filter id="filter0_d_36_20" x="0.173157" y="0.558655" width="86.1946" height="108" filterUnits="userSpaceOnUse" color-interpolation-filters="sRGB">
<feFlood flood-opacity="0" result="BackgroundImageFix"/>
<feColorMatrix in="SourceAlpha" type="matrix" values="0 0 0 0 0 0 0 0 0 0 0 0 0 0 0 0 0 0 127 0" result="hardAlpha"/>
<feOffset dy="4"/>
<feGaussianBlur stdDeviation="2"/>
<feComposite in2="hardAlpha" operator="out"/>
<feColorMatrix type="matrix" values="0 0 0 0 0 0 0 0 0 0 0 0 0 0 0 0 0 0 0.25 0"/>
<feBlend mode="normal" in2="BackgroundImageFix" result="effect1_dropShadow_36_20"/>
<feBlend mode="normal" in="SourceGraphic" in2="effect1_dropShadow_36_20" result="shape"/>
</filter>
</defs>
</svg>
