<svg width="120" height="137" viewBox="0 0 120 137" fill="none" xmlns="http://www.w3.org/2000/svg">
<path d="M36.7639 63.9057C37.5043 66.491 39.8744 73.0641 45.6638 77.0988L45.5781 81.6509C40.0613 83.4881 24.3891 88.8383 17.75 92.4782C17.1543 92.8047 16.6948 93.333 16.4539 93.968C16.229 94.5603 10.9739 108.597 13.2695 119.113C13.5558 120.424 14.7163 121.358 16.0581 121.358H103.757C105.098 121.358 106.258 120.424 106.545 119.114C108.84 108.634 103.978 94.6322 103.769 94.0414C103.536 93.3792 103.067 92.8261 102.452 92.4879C95.8697 88.8719 81.1242 83.4898 75.8269 81.599V77.0174C79.8667 72.9808 82.6577 66.4074 83.5534 64.1098C85.535 62.4994 90.7233 57.6536 90.7233 51.0588C90.7233 46.457 88.7169 44.1554 86.3625 43.3568C86.8394 38.1682 86.8557 27.8675 80.8665 20.5757C76.5895 15.3683 70.1733 12.7279 61.7969 12.7279H58.2726C49.8959 12.7279 43.4869 15.368 39.223 20.5749C33.2807 27.8319 33.2969 38.0695 33.7827 43.2852C31.4937 44.0552 29.5337 46.316 29.5337 50.8667C29.534 57.3377 34.6475 62.1792 36.7639 63.9057ZM82.2941 90.0635C87.9491 92.2059 94.6307 94.874 98.7207 96.9703C99.6355 99.9081 102.053 108.541 101.322 115.649H18.5018C17.8188 108.534 20.4655 99.8756 21.4422 96.9852C24.9479 95.2096 30.5321 93.0293 35.7821 91.1125C38.169 93.6024 46.2703 101.112 57.5354 101.568C57.8956 101.582 58.2552 101.59 58.6142 101.59C66.7329 101.59 74.5745 97.8623 81.9379 90.4982C82.0732 90.3627 82.1917 90.2168 82.2941 90.0635ZM35.6342 48.6873C35.6556 48.6836 35.6904 48.6796 35.7412 48.6796C35.8694 48.6796 35.995 48.705 36.0595 48.7215C37.0262 49.1311 38.074 48.9478 38.894 48.2877C39.7231 47.6198 40.0422 46.5175 39.8324 45.4738C39.8056 45.3402 37.2206 32.0303 43.6402 24.1908C46.7672 20.3719 51.6906 18.4357 58.2732 18.4357H61.7969C68.3735 18.4357 73.3006 20.3688 76.4417 24.1817C82.8684 31.9827 80.353 45.3522 80.3276 45.482C80.1253 46.5035 80.4246 47.5798 81.2224 48.2489C82.011 48.9102 83.0248 49.12 83.9855 48.7606C84.0377 48.7495 84.1505 48.7292 84.2832 48.7292C84.3351 48.7292 84.509 48.7335 84.5618 48.7874C84.7302 48.9598 85.0153 49.6317 85.0153 51.0582C85.0153 56.047 79.5761 59.9749 79.529 60.0086C79.0447 60.3482 78.677 60.832 78.4787 61.3895C77.6296 63.7747 74.6541 70.6158 71.1323 73.5879C70.4899 74.1302 70.1191 74.9282 70.1191 75.769V83.6157C70.1191 84.8296 70.8869 85.9107 72.0328 86.3106C72.0911 86.3309 73.8167 86.9345 76.4177 87.8813C70.376 93.4206 64.1274 96.109 57.8157 95.8655C50.666 95.5926 44.8971 91.6074 41.8269 88.9607C46.0722 87.4851 49.1952 86.4679 49.2763 86.4413C50.4336 86.0654 51.2254 84.9971 51.2482 83.7804L51.4021 75.5961C51.4217 74.546 50.8632 73.5699 49.9481 73.055C43.8531 69.6257 42.0923 61.7299 42.0769 61.6592C41.9291 60.951 41.5104 60.32 40.919 59.9036C40.8622 59.8636 35.2435 55.8489 35.2435 50.8656C35.2423 49.3143 35.5586 48.79 35.6342 48.6873Z" fill="#472D30"/>
<path d="M2.85417 19.9786C4.43052 19.9786 5.70833 18.7008 5.70833 17.1244V5.70833H17.1267C18.7031 5.70833 19.9809 4.43052 19.9809 2.85417C19.9809 1.27781 18.7031 0 17.1267 0H2.85417C1.27781 0 0 1.27781 0 2.85417V17.1244C0 18.7008 1.27781 19.9786 2.85417 19.9786Z" fill="#472D30"/>
<path d="M117.025 0H102.752C101.176 0 99.8981 1.27781 99.8981 2.85417C99.8981 4.43052 101.176 5.70833 102.752 5.70833H114.171V17.1244C114.171 18.7008 115.448 19.9786 117.025 19.9786C118.601 19.9786 119.879 18.7008 119.879 17.1244V2.85417C119.879 1.27781 118.601 0 117.025 0Z" fill="#472D30"/>
<path d="M17.1267 131.292H5.70833V119.876C5.70833 118.299 4.43052 117.021 2.85417 117.021C1.27781 117.021 0 118.299 0 119.876V134.146C0 135.722 1.27781 137 2.85417 137H17.1267C18.7031 137 19.9809 135.722 19.9809 134.146C19.9809 132.569 18.7031 131.292 17.1267 131.292Z" fill="#472D30"/>
<path d="M117.025 117.021C115.448 117.021 114.171 118.299 114.171 119.876V131.292H102.752C101.176 131.292 99.8981 132.569 99.8981 134.146C99.8981 135.722 101.176 137 102.752 137H117.025C118.601 137 119.879 135.722 119.879 134.146V119.876C119.879 118.299 118.601 117.021 117.025 117.021Z" fill="#472D30"/>
</svg>
